<svg width="101" height="24" viewBox="0 0 101 24" fill="none" xmlns="http://www.w3.org/2000/svg">
<g id="Link &#226;&#134;&#146; xbloom_logo_2988e005-3aa0-4291-9b12-7b1d23307bbe.png" clip-path="url(#clip0_1_1051)">
<path id="black 120px" fill-rule="evenodd" clip-rule="evenodd" d="M23.5609 5.41662C29.4121 5.41662 32.7599 8.62451 32.9408 13.7995C32.9408 13.8802 32.917 13.9131 32.9117 13.9407L32.9107 13.9508H14.9651L14.9662 14.3839C15.0352 19.3966 18.339 22.1521 23.6212 22.1521C27.1958 22.1521 29.623 21.3256 31.6873 19.3517L31.7646 19.2771L32.3678 20.0035C30.1661 22.1219 27.5421 22.9995 23.5911 22.9995C17.4986 22.9995 14 19.5495 14 14.2232C14 8.86662 17.4986 5.41662 23.5609 5.41662ZM76.3184 5.41662C82.441 5.41662 86 8.86662 86 14.2232C86 19.5495 82.441 22.9995 76.3184 22.9995C70.1959 22.9995 66.6369 19.5495 66.6369 14.2232C66.6369 8.86662 70.1959 5.41662 76.3184 5.41662ZM50.1357 -0.000488281V22.3942H49.2007V-0.000488281H50.1357ZM76.3184 6.29425C71.0102 6.29425 67.602 9.07846 67.602 14.2232C67.602 19.3377 71.0102 22.1219 76.3184 22.1219C81.6267 22.1219 85.0047 19.3377 85.0047 14.2232C85.0047 9.07846 81.6267 6.29425 76.3184 6.29425ZM23.5609 6.26398C18.7237 6.26398 15.542 8.63686 15.0399 12.9715L15.0255 13.1035H31.9154C31.463 8.65477 28.3866 6.26398 23.5609 6.26398Z" fill="#413E3E"/>
</g>
<defs>
<clipPath id="clip0_1_1051">
<rect width="100" height="23.19" fill="white" transform="translate(0.25 0.199707)"/>
</clipPath>
</defs>
</svg>
